<?xml version="1.0" encoding="UTF-8" standalone="no"?>
<!-- Created with Inkscape (http://www.inkscape.org/) -->

<svg
   version="1.1"
   id="svg1949"
   width="122.44095"
   height="122.441"
   viewBox="0 0 122.44095 122.441"
   sodipodi:docname="logo.svg"
   inkscape:version="1.2.1 (9c6d41e, 2022-07-14)"
   xml:space="preserve"
   xmlns:inkscape="http://www.inkscape.org/namespaces/inkscape"
   xmlns:sodipodi="http://sodipodi.sourceforge.net/DTD/sodipodi-0.dtd"
   xmlns="http://www.w3.org/2000/svg"
   xmlns:svg="http://www.w3.org/2000/svg"><defs
     id="defs1953" /><sodipodi:namedview
     id="namedview1951"
     pagecolor="#ffffff"
     bordercolor="#999999"
     borderopacity="1"
     inkscape:showpageshadow="0"
     inkscape:pageopacity="0"
     inkscape:pagecheckerboard="0"
     inkscape:deskcolor="#d1d1d1"
     showgrid="false"
     inkscape:zoom="2.9002426"
     inkscape:cx="19.825928"
     inkscape:cy="31.204286"
     inkscape:window-width="1643"
     inkscape:window-height="997"
     inkscape:window-x="37"
     inkscape:window-y="25"
     inkscape:window-maximized="1"
     inkscape:current-layer="g1955" /><g
     inkscape:groupmode="layer"
     inkscape:label="Image"
     id="g1955"
     transform="translate(-33.308732,-47.314942)"><path
       style="display:inline;fill:#000000;fill-opacity:1;stroke:none;stroke-width:0.32"
       d="m 155.56104,98.19303 c -0.4141,2.61742 -1.88736,6.18863 -3.53196,8.56151 -0.78321,1.13004 -2.08038,3.29958 -2.8826,4.8212 -0.80221,1.52162 -2.14156,3.65417 -2.97633,4.73901 -0.86155,1.11965 -1.73155,2.70013 -2.01225,3.65552 -1.55013,5.27602 -5.62695,10.03746 -10.72519,12.52625 -1.64321,0.80216 -3.99565,1.66109 -5.22765,1.90873 -1.30748,0.26282 -3.23912,0.98873 -4.64,1.74371 -1.32,0.7114 -3.048,1.45844 -3.84,1.66009 -0.792,0.20165 -2.04829,0.79539 -2.79176,1.31943 -3.17054,2.23479 -6.47092,3.16487 -11.23042,3.16487 -5.29928,0 -10.405642,-1.85228 -13.81944,-5.01285 -0.99536,-0.92153 -2.501978,-1.93283 -3.377626,-2.26721 -0.869414,-0.33199 -2.228755,-1.02208 -3.020755,-1.53352 -0.792,-0.51145 -2.293629,-1.10981 -3.336957,-1.32968 -2.745747,-0.57866 -6.171904,-2.31527 -8.553091,-4.33529 l -2.074099,-1.75951 -0.988413,0.83903 c -0.543626,0.46147 -1.20744,1.28005 -1.475142,1.81908 -1.230512,2.47769 -4.552052,5.33927 -7.274343,6.26702 -0.603875,0.2058 -1.595385,0.80484 -2.203353,1.3312 -2.455069,2.12552 -7.161415,3.36487 -9.578365,2.52231 -0.615466,-0.21455 -1.052567,-0.22832 -1.170874,-0.0369 -0.509283,0.82404 -2.765648,1.57632 -4.727961,1.57632 -2.995252,0 -4.739952,-1.24221 -6.516954,-4.64 -0.941635,-1.8005 -1.69096,-4.33385 -1.69665,-5.73613 -0.0022,-0.51487 -0.531744,-2.00461 -1.177011,-3.31052 l -1.173213,-2.3744 -0.10022,-6.40029 c -0.09083,-5.80039 -0.03876,-6.56986 0.555548,-8.20947 0.360672,-0.99505 0.8021,-2.67319 0.980948,-3.72919 0.527392,-3.11396 2.017078,-5.74947 4.906537,-8.680487 l 2.563613,-2.600489 -1.362294,-1.038647 c -2.75017,-2.096793 -5.575188,-6.693924 -5.997924,-9.760374 -0.121312,-0.88 -0.558636,-2.46792 -0.971827,-3.52871 -0.81743,-2.0986 -0.907408,-3.42852 -0.725133,-10.71769 0.105508,-4.2192 0.136925,-4.38571 1.26793,-6.72 0.699958,-1.44465 1.235805,-3.10387 1.351597,-4.18515 0.380137,-3.54978 2.124403,-6.90081 4.420073,-8.49171 1.17465,-0.81403 1.597428,-0.91674 3.773588,-0.91674 2.091782,0 2.634784,0.12035 3.70736,0.8217 0.925059,0.60489 1.467715,0.76106 2.05663,0.59189 2.651242,-0.76156 6.5336,0.2356 9.433706,2.423 1.052534,0.79388 2.146211,1.44341 2.430387,1.44341 0.784169,0 4.163993,2.29603 5.314966,3.61063 0.560483,0.64017 1.384624,1.78773 1.831424,2.55013 0.4468,0.76241 1.229223,1.6944 1.738711,2.07108 l 0.926348,0.68488 1.69498,-1.56644 c 2.203257,-2.03617 5.346864,-3.66737 8.535283,-4.4289 1.404573,-0.33548 3.149593,-0.98608 3.877824,-1.4458 0.72823,-0.45971 1.938829,-1.07516 2.690214,-1.36767 0.751386,-0.2925 2.158157,-1.27453 3.126157,-2.18227 3.699053,-3.4688 7.503904,-4.95695 13.280001,-5.19405 5.40713,-0.22195 9.18293,0.77821 12.5102,3.31381 0.54462,0.41503 1.16022,0.7546 1.368,0.7546 0.79683,0 3.97573,1.2829 5.49446,2.21738 0.94466,0.58126 2.58694,1.18352 4.05311,1.48637 7.36184,1.52062 13.83463,7.38968 15.87122,14.39086 0.26794,0.92111 1.19374,2.57044 2.15545,3.84 0.92718,1.22397 2.22136,3.33187 2.87594,4.68424 0.65459,1.35238 1.63885,3.00319 2.18724,3.66848 1.44418,1.75204 3.10987,5.08268 3.71525,7.42882 0.64769,2.510144 0.86869,6.639031 0.48511,9.063527 z"
       id="path2428"
       inkscape:label="outer" /><path
       id="path2558"
       style="display:inline;fill:#6cc04a;fill-opacity:1;stroke:none;stroke-width:0.32"
       d="m 68.80839,111.1891 c -0.538838,-2.56187 -1.738409,-4.84065 -3.311437,-6.29062 -1.669286,-1.5387 -2.774,-1.89959 -3.93646,-1.28601 -1.425143,0.75225 -7.259376,6.70558 -9.313037,9.50316 -1.61105,2.19463 -4.864323,8.04823 -5.545357,9.97772 -0.09318,0.264 -0.284554,0.37258 -0.42527,0.2413 -0.355229,-0.33143 0.938144,-5.26918 2.130265,-8.13279 1.851005,-4.44631 5.71041,-9.67046 9.044362,-12.24258 0.956317,-0.7378 1.820781,-1.55519 1.921027,-1.81643 0.263571,-0.68685 -2.193437,-3.222444 -3.559414,-3.673257 -3.893629,-1.285011 -10.032461,1.485194 -12.975536,5.855337 -1.614864,2.39789 -1.754471,3.05226 -0.733959,3.44025 1.057411,0.40203 1.034512,0.64605 -0.167821,1.7883 -1.376681,1.30789 -2.199603,3.04911 -2.292102,4.84989 l -0.07859,1.52998 1.04,-0.0812 c 0.572,-0.0447 1.04,0.0459 1.04,0.20133 0,0.15541 -0.365469,1.08084 -0.81215,2.05653 -1.010186,2.20653 -1.335744,4.66063 -0.79232,5.97256 0.443324,1.07029 0.989622,1.23165 1.615724,0.47724 0.696212,-0.83888 0.965856,-0.0365 0.618749,1.84114 -0.529126,2.8623 0.544842,7.98657 1.772605,8.4577 0.260016,0.0998 1.040618,-0.31751 1.783555,-0.95344 1.680627,-1.43855 3.335802,-2.2238 4.767664,-2.26189 1.03489,-0.0275 1.127184,0.0457 1.138643,0.90304 0.03158,2.36267 2.689952,1.56683 5.538976,-1.65821 1.652,-1.87003 1.821242,-1.98125 2.091885,-1.37471 0.445197,0.99773 1.038195,0.80914 2.704487,-0.86007 1.380726,-1.38314 2.150534,-2.88901 3.135488,-6.13351 0.104931,-0.34565 0.226505,-0.36468 0.511184,-0.08 0.619587,0.61959 1.119238,0.42864 1.81216,-0.69253 1.448873,-2.34432 1.971308,-6.25566 1.276681,-9.55821 z M 68.685731,71.035443 c -0.657584,-2.21433 -1.59249,-3.35649 -2.550582,-3.11603 -0.640061,0.16065 -0.798183,0.0164 -1.140285,-1.03978 -0.736186,-2.27297 -1.880695,-4.19569 -3.091699,-5.1939 -1.404324,-1.15756 -1.821908,-1.22068 -2.420644,-0.36586 -0.41664,0.59483 -0.523936,0.52982 -2.122,-1.28567 -1.688099,-1.91778 -3.603129,-3.18085 -4.822713,-3.18085 -0.359011,0 -0.666938,0.18 -0.684282,0.4 -0.01734,0.22 -0.05334,0.75735 -0.08,1.19412 -0.02714,0.44447 -0.273318,0.83808 -0.559139,0.89397 -1.00297,0.19609 -4.091104,-1.24589 -5.41063,-2.52645 -0.731383,-0.70978 -1.520237,-1.21743 -1.753008,-1.1281 -0.581943,0.22331 -1.719024,3.37699 -1.96152,5.44023 -0.109927,0.93531 -0.03585,2.46535 0.164617,3.40009 0.200467,0.93474 0.289283,1.77474 0.197367,1.86665 -0.09191,0.0919 -0.529812,-0.027 -0.973101,-0.26423 -1.191072,-0.63744 -1.595392,-0.039 -1.581347,2.34051 0.0086,1.46417 0.238953,2.47489 0.88,3.86188 0.477561,1.03327 0.868294,2.00582 0.868294,2.16122 0,0.1554 -0.468,0.246 -1.04,0.20133 -1.03847,-0.0811 -1.039869,-0.0792 -0.950474,1.31186 0.11944,1.85854 0.729722,3.23218 2.11938,4.77036 1.320096,1.46119 1.388521,1.67656 0.532659,1.67656 -1.053443,0 -1.113818,1.1581 -0.146435,2.80881 1.315657,2.245 3.688355,4.379568 6.306412,5.673484 4.575021,2.261098 8.178298,1.759895 10.468285,-1.456096 l 0.673709,-0.946138 -3.242419,-3.1016 c -5.04945,-4.83016 -8.128698,-10.03301 -9.6224,-16.25846 -1.048317,-4.36918 -0.66608,-4.4411 1.300425,-0.24469 2.218944,4.73511 5.1685,8.82307 9.458656,13.1093 2.176004,2.17402 4.276896,3.99716 4.740077,4.11341 2.004755,0.50316 5.155754,-2.60472 6.315283,-6.22888 0.720554,-2.25212 0.784032,-6.67631 0.127514,-8.88705 z"
       inkscape:label="leaves" /><path
       style="display:inline;fill:#ffffff;fill-opacity:1;stroke:none;stroke-width:0.32"
       d="m 132.03455,88.647293 c -2.7411,-5.36818 -8.04089,-7.50899 -13.07573,-5.28184 -1.65495,0.73206 -4.10414,3.1041 -4.98221,4.82526 -3.26567,6.401235 -1.21638,14.541337 4.46845,17.749427 1.58842,0.89638 2.02518,0.99284 4.48,0.98937 2.199,-0.003 2.9788,-0.14139 4.0711,-0.72196 2.83793,-1.50839 4.68094,-3.76741 5.9312,-7.270018 0.43607,-1.221664 0.54925,-2.343357 0.47465,-4.704118 -0.0913,-2.887645 -0.1849,-3.270199 -1.36746,-5.586121 z"
       id="path4263"
       inkscape:label="eye" /><path
       style="display:inline;fill:#c51a4a;fill-opacity:1;stroke:none;stroke-width:0.32"
       d="m 138.50557,121.93511 c 0.97289,-1.5542 1.05308,-6.08197 -0.72908,-4.52941 -8.78446,7.65272 -18.55807,-2.92284 -20.92796,-4.68054 -3.35186,2.37013 -0.48442,8.68133 5.32345,11.71692 5.52544,2.88798 13.74631,1.62619 16.33359,-2.50697 z"
       id="path4282"
       sodipodi:nodetypes="sscss"
       inkscape:label="smile" /><path
       id="path2536"
       style="display:inline;fill:#c51a4a;fill-opacity:1;stroke:none;stroke-width:0.32"
       d="m 148.96937,90.751433 c -1.62467,-5.4758 -4.7572,-8.1603 -7.03806,-6.03141 -2.12787,1.98609 -3.14378,5.886428 -2.91028,11.17333 0.23464,5.312537 1.54985,8.691137 3.73573,9.596557 1.79562,0.74377 3.40429,-0.45864 5.13283,-3.83656 1.61573,-3.157463 2.05667,-7.609392 1.07978,-10.901917 z m -10.99863,-19.56434 c -1.22429,-3.96381 -4.74805,-7.62883 -8.89375,-9.2503 -2.58858,-1.01245 -6.71868,-1.02942 -8.61078,-0.0354 -1.71758,0.90235 -2.34192,1.81646 -2.33802,3.42315 0.005,2.02414 1.30781,4.35326 4.02779,7.20023 2.76959,2.8989 6.22619,5.36981 8.92391,6.37915 2.16561,0.81026 4.84527,0.8778 5.88668,0.14836 1.68951,-1.18338 2.09267,-4.34108 1.00417,-7.8652 z m -24.30781,59.282947 c -3.79605,-3.54604 -18.072053,-3.84918 -18.973279,-0.40288 -0.425888,1.62859 1.927136,3.97379 5.256238,5.23875 4.775241,1.81444 10.738061,1.05625 13.619171,-1.73172 1.28674,-1.24514 1.30966,-1.97217 0.0979,-3.10415 z m 0.27056,-74.064137 c -1.51773,-1.92948 -6.0378,-3.3155 -9.69786,-2.97372 -4.961688,0.46333 -10.179736,3.94388 -9.545979,6.36737 0.661469,2.52946 9.544669,3.3196 15.373279,1.3674 2.78941,-0.93426 4.54213,-2.1995 4.54213,-3.27883 0,-0.34565 -0.3022,-1.01265 -0.67157,-1.48222 z m -2.72491,50.367447 c -2.57759,-5.41477 -9.29095,-9.006871 -14.924078,-7.985389 -3.725286,0.675523 -6.538409,2.757049 -7.980976,5.905389 -0.571517,1.24731 -0.73279,2.16765 -0.731622,4.1752 0.0013,2.2578 0.129878,2.83598 1.043094,4.69099 1.861351,3.78094 5.442544,6.70091 9.521248,7.76328 2.571524,0.6698 4.796444,0.61561 7.370754,-0.17951 1.79131,-0.55328 2.48503,-0.98573 3.9809,-2.4816 2.29936,-2.29935 2.88264,-3.81784 2.78425,-7.24836 -0.0604,-2.10567 -0.24915,-2.92914 -1.06357,-4.64 z m 0.52034,-32.396217 c -0.78266,-2.09186 -3.05453,-4.41501 -5.28386,-5.40314 -1.03173,-0.4573 -2.48772,-0.76173 -4.09941,-0.85715 -5.973861,-0.35366 -11.142895,2.74513 -13.772553,8.25651 -0.850204,1.78191 -0.993552,2.44688 -1.000236,4.64 -0.0066,2.16351 0.13048,2.84159 0.885027,4.37811 3.312585,6.745605 13.191852,7.651173 19.597902,1.79641 3.88882,-3.55416 5.29783,-8.46835 3.67313,-12.81074 z M 86.782214,121.90143 c -1.452259,-3.0698 -3.391411,-5.71893 -6.286211,-8.58777 -4.131984,-4.09494 -6.575968,-4.86746 -7.451674,-2.35541 -1.137468,3.26295 0.716663,8.41605 4.22049,11.72983 2.354563,2.22684 4.657968,3.34229 7.294282,3.53231 1.942873,0.14004 2.156627,0.0916 2.64,-0.59853 0.716339,-1.02272 0.671952,-1.41884 -0.416887,-3.72043 z M 87.04431,63.852603 c -0.589446,-0.58945 -0.935222,-0.65768 -2.578083,-0.50871 -6.003584,0.54439 -11.439069,6.70453 -11.498304,13.03124 -0.02298,2.45247 0.356202,3.42548 1.440925,3.69772 1.198307,0.30076 2.832073,-0.60051 5.287568,-2.9169 3.029616,-2.85799 5.252371,-5.69202 6.780745,-8.64554 1.420058,-2.74419 1.535194,-3.68976 0.567149,-4.65781 z m -2.709491,25.35155 c -1.123491,-4.96851 -3.74905,-7.38876 -6.48225,-5.97537 -1.188118,0.6144 -3.371136,3.02514 -4.1863,4.623 -1.488852,2.918386 -2.025357,7.340639 -1.281837,10.5658 1.112803,4.827007 5.164041,9.280127 7.735603,8.502977 3.954013,-1.19494 6.003069,-9.807927 4.214784,-17.716407 z"
       inkscape:label="seeds" /><path
       id="path4203"
       style="stroke-linecap:round;stroke-linejoin:round"
       inkscape:label="pupil"
       d="m 130.58872,94.930183 a 4.5104761,4.5104761 0 0 1 -4.51047,4.510477 4.5104761,4.5104761 0 0 1 -4.51048,-4.510477 4.5104761,4.5104761 0 0 1 4.51048,-4.510476 4.5104761,4.5104761 0 0 1 4.51047,4.510476 z" /><g
       aria-label="FishyPi"
       id="text4355"
       style="font-weight:bold;font-size:30.2362px;line-height:1.25;font-family:'Times New Roman';-inkscape-font-specification:'Times New Roman,  Bold'"
       inkscape:label="Text"><path
         id="path359"
         style="font-family:Arial;-inkscape-font-specification:'Arial Bold';stroke:none;fill:#000000"
         d="m 103.0479,147.71364 h 4.41437 l 3.75,11.13188 3.66141,-11.13188 h 4.29626 l -5.53641,15.08857 -0.98918,2.7313 q -0.54626,1.37303 -1.04823,2.09645 -0.4872,0.72343 -1.13681,1.16634 -0.63484,0.45768 -1.57972,0.70866 -0.93012,0.25099 -2.11122,0.25099 -1.19586,0 -2.34744,-0.25099 l -0.36909,-3.24803 q 0.97441,0.19193 1.75689,0.19193 1.44685,0 2.14074,-0.8563 0.6939,-0.84153 1.063,-2.15551 z m -12.372036,-5.96457 v 7.95768 q 2.007873,-2.34744 4.798225,-2.34744 1.432086,0 2.58366,0.53149 1.151574,0.5315 1.727361,1.35827 0.59055,0.82677 0.79724,1.83071 0.22146,1.00393 0.22146,3.11515 v 9.19783 h -4.148619 v -8.28247 q 0,-2.46555 -0.23622,-3.12992 -0.236221,-0.66437 -0.841535,-1.04823 -0.590551,-0.39862 -1.491141,-0.39862 -1.033464,0 -1.845471,0.50197 -0.812007,0.50196 -1.195865,1.52066 -0.369095,1.00394 -0.369095,2.98229 v 7.85432 h -4.148619 v -21.64369 z m -22.411404,17.17027 4.163383,-0.63484 q 0.265748,1.21063 1.077756,1.84547 0.812007,0.62008 2.27362,0.62008 1.609251,0 2.421258,-0.59055 0.54626,-0.41339 0.54626,-1.10729 0,-0.47244 -0.295275,-0.78248 -0.31004,-0.29527 -1.387795,-0.54626 -5.019682,-1.10728 -6.363185,-2.02263 -1.860235,-1.26969 -1.860235,-3.52854 0,-2.0374 1.609251,-3.4252 1.609251,-1.38779 4.990155,-1.38779 3.218501,0 4.783461,1.04822 1.564959,1.04823 2.15551,3.1004 l -3.912399,0.72342 q -0.250984,-0.91535 -0.959645,-1.40256 -0.693897,-0.4872 -1.993109,-0.4872 -1.638778,0 -2.347439,0.45768 -0.472441,0.3248 -0.472441,0.84153 0,0.44291 0.413386,0.75295 0.561023,0.41339 3.868108,1.16634 3.321848,0.75295 4.635823,1.84547 1.299212,1.10728 1.299212,3.08563 0,2.15551 -1.80118,3.70571 -1.80118,1.55019 -5.329721,1.55019 -3.203738,0 -5.078737,-1.29921 -1.860235,-1.29921 -2.436022,-3.52854 z m -6.938972,-13.33169 v -3.83858 h 4.14862 v 3.83858 z m 0,17.80511 v -15.67912 h 4.14862 v 15.67912 z m -18.410421,0 v -21.64369 h 14.837588 v 3.66142 H 47.285143 v 5.12303 h 9.035427 v 3.66141 h -9.035427 v 9.19783 z"
         inkscape:label="Fishy" /><path
         id="path363"
         style="font-family:Arial;-inkscape-font-specification:'Arial Bold';fill:#c51a4a;fill-opacity:1;stroke:none"
         d="m 141.99473,145.58765 v -3.83858 h 4.14862 v 3.83858 z m 0,17.80511 v -15.67912 h 4.14862 v 15.67912 z m -20.13779,0 v -21.64369 h 7.01279 q 3.98622,0 5.19685,0.32481 1.86024,0.4872 3.11516,2.12598 1.25492,1.62402 1.25492,4.20767 0,1.99311 -0.72343,3.35138 -0.72342,1.35827 -1.84547,2.14075 -1.10728,0.76771 -2.25886,1.0187 -1.56495,0.31004 -4.53247,0.31004 h -2.84941 v 8.16436 z m 4.37008,-17.98227 v 6.14173 h 2.39173 q 2.58366,0 3.45472,-0.33957 0.87107,-0.33957 1.35827,-1.06299 0.50197,-0.72342 0.50197,-1.68307 0,-1.1811 -0.6939,-1.94882 -0.6939,-0.76771 -1.75689,-0.95964 -0.78248,-0.14764 -3.14468,-0.14764 z"
         inkscape:label="Pi" /></g></g></svg>
