<?xml version="1.0" encoding="UTF-8" standalone="no"?>
<!-- Created with Inkscape (http://www.inkscape.org/) -->

<svg
   version="1.1"
   id="svg1949"
   width="122.44095"
   height="94.978409"
   viewBox="0 0 122.44095 94.978407"
   sodipodi:docname="logo_cutouts.svg"
   inkscape:version="1.2.1 (9c6d41e, 2022-07-14)"
   xml:space="preserve"
   xmlns:inkscape="http://www.inkscape.org/namespaces/inkscape"
   xmlns:sodipodi="http://sodipodi.sourceforge.net/DTD/sodipodi-0.dtd"
   xmlns="http://www.w3.org/2000/svg"
   xmlns:svg="http://www.w3.org/2000/svg"><defs
     id="defs1953" /><sodipodi:namedview
     id="namedview1951"
     pagecolor="#ffffff"
     bordercolor="#999999"
     borderopacity="1"
     inkscape:showpageshadow="0"
     inkscape:pageopacity="0"
     inkscape:pagecheckerboard="0"
     inkscape:deskcolor="#d1d1d1"
     showgrid="false"
     inkscape:zoom="2.9002426"
     inkscape:cx="14.481547"
     inkscape:cy="31.204286"
     inkscape:window-width="1643"
     inkscape:window-height="997"
     inkscape:window-x="37"
     inkscape:window-y="25"
     inkscape:window-maximized="1"
     inkscape:current-layer="g1955" /><g
     inkscape:groupmode="layer"
     inkscape:label="Image"
     id="g1955"
     transform="translate(-33.308732,-47.314942)"><path
       style="stroke-linecap:round;stroke-linejoin:round;fill:#000000;stroke:none"
       d="m 68.685731,71.035443 c -0.657584,-2.21433 -1.59249,-3.35649 -2.550582,-3.11603 -0.640061,0.16065 -0.798183,0.0164 -1.140285,-1.03978 -0.736186,-2.27297 -1.880695,-4.19569 -3.091699,-5.1939 -1.404324,-1.15756 -1.821908,-1.22068 -2.420644,-0.36586 -0.41664,0.59483 -0.523936,0.52982 -2.122,-1.28567 -1.688099,-1.91778 -3.603129,-3.18085 -4.822713,-3.18085 -0.359011,0 -0.666938,0.18 -0.684282,0.4 -0.01734,0.22 -0.05334,0.75735 -0.08,1.19412 -0.02714,0.44447 -0.273318,0.83808 -0.559139,0.89397 -1.00297,0.19609 -4.091104,-1.24589 -5.41063,-2.52645 -0.731383,-0.70978 -1.520237,-1.21743 -1.753008,-1.1281 -0.581943,0.22331 -1.719024,3.37699 -1.96152,5.44023 -0.109927,0.93531 -0.03585,2.46535 0.164617,3.40009 0.200467,0.93474 0.289283,1.77474 0.197367,1.86665 -0.09191,0.0919 -0.529812,-0.027 -0.973101,-0.26423 -1.191072,-0.63744 -1.595392,-0.039 -1.581347,2.34051 0.0086,1.46417 0.238953,2.47489 0.88,3.86188 0.477561,1.03327 0.868294,2.00582 0.868294,2.16122 0,0.1554 -0.468,0.246 -1.04,0.20133 -1.03847,-0.0811 -1.039869,-0.0792 -0.950474,1.31186 0.11944,1.85854 0.729722,3.23218 2.11938,4.77036 1.320096,1.46119 1.388521,1.67656 0.532659,1.67656 -1.053443,0 -1.113818,1.1581 -0.146435,2.80881 1.315657,2.245 3.688355,4.379568 6.306412,5.673484 4.575021,2.261098 8.178298,1.759895 10.468285,-1.456096 l 0.673709,-0.946138 -3.242419,-3.1016 c -5.04945,-4.83016 -8.128698,-10.03301 -9.6224,-16.25846 -1.048317,-4.36918 -0.66608,-4.4411 1.300425,-0.24469 2.218944,4.73511 5.1685,8.82307 9.458656,13.1093 2.176004,2.17402 4.276896,3.99716 4.740077,4.11341 2.004755,0.50316 5.155754,-2.60472 6.315283,-6.22888 0.720554,-2.25212 0.784032,-6.67631 0.127514,-8.88705 z"
       id="path507" /><path
       style="stroke-linecap:round;stroke-linejoin:round;fill:#000000;stroke:none"
       d="m 68.80839,111.1891 c -0.538838,-2.56187 -1.738409,-4.84065 -3.311437,-6.29062 -1.669286,-1.5387 -2.774,-1.89959 -3.93646,-1.28601 -1.425143,0.75225 -7.259376,6.70558 -9.313037,9.50316 -1.61105,2.19463 -4.864323,8.04823 -5.545357,9.97772 -0.09318,0.264 -0.284554,0.37258 -0.42527,0.2413 -0.355229,-0.33143 0.938144,-5.26918 2.130265,-8.13279 1.851005,-4.44631 5.71041,-9.67046 9.044362,-12.24258 0.956317,-0.7378 1.820781,-1.55519 1.921027,-1.81643 0.263571,-0.68685 -2.193437,-3.222444 -3.559414,-3.673257 -3.893629,-1.285011 -10.032461,1.485194 -12.975536,5.855337 -1.614864,2.39789 -1.754471,3.05226 -0.733959,3.44025 1.057411,0.40203 1.034512,0.64605 -0.167821,1.7883 -1.376681,1.30789 -2.199603,3.04911 -2.292102,4.84989 l -0.07859,1.52998 1.04,-0.0812 c 0.572,-0.0447 1.04,0.0459 1.04,0.20133 0,0.15541 -0.365469,1.08084 -0.81215,2.05653 -1.010186,2.20653 -1.335744,4.66063 -0.79232,5.97256 0.443324,1.07029 0.989622,1.23165 1.615724,0.47724 0.696212,-0.83888 0.965856,-0.0365 0.618749,1.84114 -0.529126,2.8623 0.544842,7.98657 1.772605,8.4577 0.260016,0.0998 1.040618,-0.31751 1.783555,-0.95344 1.680627,-1.43855 3.335802,-2.2238 4.767664,-2.26189 1.03489,-0.0275 1.127184,0.0457 1.138643,0.90304 0.03158,2.36267 2.689952,1.56683 5.538976,-1.65821 1.652,-1.87003 1.821242,-1.98125 2.091885,-1.37471 0.445197,0.99773 1.038195,0.80914 2.704487,-0.86007 1.380726,-1.38314 2.150534,-2.88901 3.135488,-6.13351 0.104931,-0.34565 0.226505,-0.36468 0.511184,-0.08 0.619587,0.61959 1.119238,0.42864 1.81216,-0.69253 1.448873,-2.34432 1.971308,-6.25566 1.276681,-9.55821 z"
       id="path505" /><path
       style="stroke-linecap:round;stroke-linejoin:round;fill:#000000;stroke:none"
       d="m 122.74037,82.496583 c -1.24771,0.02861 -2.52254,0.312353 -3.78125,0.86914 -1.65495,0.73206 -4.10435,3.103061 -4.98242,4.824219 -3.26567,6.401229 -1.21607,14.541918 4.46875,17.749998 1.58842,0.89638 2.02565,0.99371 4.48047,0.99024 2.199,-0.003 2.97801,-0.14209 4.07031,-0.72266 2.79004,-1.48294 4.61825,-3.69332 5.86719,-7.095703 a 4.5104761,4.5104761 0 0 1 -1.33789,0.203125 4.5104761,4.5104761 0 0 1 -4.50977,-4.511719 4.5104761,4.5104761 0 0 1 4.50977,-4.509765 4.5104761,4.5104761 0 0 1 1.37695,0.222656 c -0.19315,-0.517037 -0.46302,-1.077633 -0.86719,-1.869141 -2.05582,-4.026131 -5.55179,-6.236233 -9.29492,-6.15039 z"
       id="path503" /><path
       style="stroke-linecap:round;stroke-linejoin:round;fill:#000000;stroke:none"
       d="m 138.50557,121.93511 c 0.97289,-1.5542 1.05308,-6.08197 -0.72908,-4.52941 -8.78446,7.65272 -18.55807,-2.92284 -20.92796,-4.68054 -3.35186,2.37013 -0.48442,8.68133 5.32345,11.71692 5.52544,2.88798 13.74631,1.62619 16.33359,-2.50697 z"
       id="path501" /><path
       style="stroke-linecap:round;stroke-linejoin:round;fill:#000000;stroke:none"
       d="m 84.334819,89.204153 c -1.123491,-4.96851 -3.74905,-7.38876 -6.48225,-5.97537 -1.188118,0.6144 -3.371136,3.02514 -4.1863,4.623 -1.488852,2.918386 -2.025357,7.340639 -1.281837,10.5658 1.112803,4.827007 5.164041,9.280127 7.735603,8.502977 3.954013,-1.19494 6.003069,-9.807927 4.214784,-17.716407 z"
       id="path499" /><path
       style="stroke-linecap:round;stroke-linejoin:round;fill:#000000;stroke:none"
       d="m 87.04431,63.852603 c -0.589446,-0.58945 -0.935222,-0.65768 -2.578083,-0.50871 -6.003584,0.54439 -11.439069,6.70453 -11.498304,13.03124 -0.02298,2.45247 0.356202,3.42548 1.440925,3.69772 1.198307,0.30076 2.832073,-0.60051 5.287568,-2.9169 3.029616,-2.85799 5.252371,-5.69202 6.780745,-8.64554 1.420058,-2.74419 1.535194,-3.68976 0.567149,-4.65781 z"
       id="path497" /><path
       style="stroke-linecap:round;stroke-linejoin:round;fill:#000000;stroke:none"
       d="m 86.782214,121.90143 c -1.452259,-3.0698 -3.391411,-5.71893 -6.286211,-8.58777 -4.131984,-4.09494 -6.575968,-4.86746 -7.451674,-2.35541 -1.137468,3.26295 0.716663,8.41605 4.22049,11.72983 2.354563,2.22684 4.657968,3.34229 7.294282,3.53231 1.942873,0.14004 2.156627,0.0916 2.64,-0.59853 0.716339,-1.02272 0.671952,-1.41884 -0.416887,-3.72043 z"
       id="path495" /><path
       style="stroke-linecap:round;stroke-linejoin:round;fill:#000000;stroke:none"
       d="m 111.72892,74.377133 c -0.78266,-2.09186 -3.05453,-4.41501 -5.28386,-5.40314 -1.03173,-0.4573 -2.48772,-0.76173 -4.09941,-0.85715 -5.973861,-0.35366 -11.142895,2.74513 -13.772553,8.25651 -0.850204,1.78191 -0.993552,2.44688 -1.000236,4.64 -0.0066,2.16351 0.13048,2.84159 0.885027,4.37811 3.312585,6.745605 13.191852,7.651173 19.597902,1.79641 3.88882,-3.55416 5.29783,-8.46835 3.67313,-12.81074 z"
       id="path493" /><path
       style="stroke-linecap:round;stroke-linejoin:round;fill:#000000;stroke:none"
       d="m 111.20858,106.77335 c -2.57759,-5.41477 -9.29095,-9.006871 -14.924078,-7.985389 -3.725286,0.675523 -6.538409,2.757049 -7.980976,5.905389 -0.571517,1.24731 -0.73279,2.16765 -0.731622,4.1752 0.0013,2.2578 0.129878,2.83598 1.043094,4.69099 1.861351,3.78094 5.442544,6.70091 9.521248,7.76328 2.571524,0.6698 4.796444,0.61561 7.370754,-0.17951 1.79131,-0.55328 2.48503,-0.98573 3.9809,-2.4816 2.29936,-2.29935 2.88264,-3.81784 2.78425,-7.24836 -0.0604,-2.10567 -0.24915,-2.92914 -1.06357,-4.64 z"
       id="path491" /><path
       style="stroke-linecap:round;stroke-linejoin:round;fill:#000000;stroke:none"
       d="m 113.93349,56.405903 c -1.51773,-1.92948 -6.0378,-3.3155 -9.69786,-2.97372 -4.961688,0.46333 -10.179736,3.94388 -9.545979,6.36737 0.661469,2.52946 9.544669,3.3196 15.373279,1.3674 2.78941,-0.93426 4.54213,-2.1995 4.54213,-3.27883 0,-0.34565 -0.3022,-1.01265 -0.67157,-1.48222 z"
       id="path489" /><path
       style="stroke-linecap:round;stroke-linejoin:round;fill:#000000;stroke:none"
       d="m 113.66293,130.47004 c -3.79605,-3.54604 -18.072053,-3.84918 -18.973279,-0.40288 -0.425888,1.62859 1.927136,3.97379 5.256238,5.23875 4.775241,1.81444 10.738061,1.05625 13.619171,-1.73172 1.28674,-1.24514 1.30966,-1.97217 0.0979,-3.10415 z"
       id="path487" /><path
       style="stroke-linecap:round;stroke-linejoin:round;fill:#000000;stroke:none"
       d="m 137.97074,71.187093 c -1.22429,-3.96381 -4.74805,-7.62883 -8.89375,-9.2503 -2.58858,-1.01245 -6.71868,-1.02942 -8.61078,-0.0354 -1.71758,0.90235 -2.34192,1.81646 -2.33802,3.42315 0.005,2.02414 1.30781,4.35326 4.02779,7.20023 2.76959,2.8989 6.22619,5.36981 8.92391,6.37915 2.16561,0.81026 4.84527,0.8778 5.88668,0.14836 1.68951,-1.18338 2.09267,-4.34108 1.00417,-7.8652 z"
       id="path485" /><path
       style="stroke-linecap:round;stroke-linejoin:round;fill:#000000;stroke:none"
       d="m 148.96937,90.751433 c -1.62467,-5.4758 -4.7572,-8.1603 -7.03806,-6.03141 -2.12787,1.98609 -3.14378,5.886428 -2.91028,11.17333 0.23464,5.312537 1.54985,8.691137 3.73573,9.596557 1.79562,0.74377 3.40429,-0.45864 5.13283,-3.83656 1.61573,-3.157463 2.05667,-7.609392 1.07978,-10.901917 z"
       id="path448" /></g></svg>
