<?xml version="1.0" encoding="UTF-8" standalone="no"?>
<!-- Created with Inkscape (http://www.inkscape.org/) -->

<svg
   version="1.1"
   id="svg1949"
   width="122.44095"
   height="94.978409"
   viewBox="0 0 122.44095 94.978407"
   sodipodi:docname="logo_outline.svg"
   inkscape:version="1.2.1 (9c6d41e, 2022-07-14)"
   xml:space="preserve"
   xmlns:inkscape="http://www.inkscape.org/namespaces/inkscape"
   xmlns:sodipodi="http://sodipodi.sourceforge.net/DTD/sodipodi-0.dtd"
   xmlns="http://www.w3.org/2000/svg"
   xmlns:svg="http://www.w3.org/2000/svg"><defs
     id="defs1953" /><sodipodi:namedview
     id="namedview1951"
     pagecolor="#ffffff"
     bordercolor="#999999"
     borderopacity="1"
     inkscape:showpageshadow="0"
     inkscape:pageopacity="0"
     inkscape:pagecheckerboard="0"
     inkscape:deskcolor="#d1d1d1"
     showgrid="false"
     inkscape:zoom="2.9002426"
     inkscape:cx="14.481547"
     inkscape:cy="31.204286"
     inkscape:window-width="1643"
     inkscape:window-height="997"
     inkscape:window-x="37"
     inkscape:window-y="25"
     inkscape:window-maximized="1"
     inkscape:current-layer="g1955" /><g
     inkscape:groupmode="layer"
     inkscape:label="Image"
     id="g1955"
     transform="translate(-33.308732,-47.314942)"><path
       style="display:inline;fill:#000000;stroke:none;stroke-linecap:round;stroke-linejoin:round"
       d="m 155.56104,98.19303 c -0.4141,2.61742 -1.88736,6.18863 -3.53196,8.56151 -0.78321,1.13004 -2.08038,3.29958 -2.8826,4.8212 -0.80221,1.52162 -2.14156,3.65417 -2.97633,4.73901 -0.86155,1.11965 -1.73155,2.70013 -2.01225,3.65552 -1.55013,5.27602 -5.62695,10.03746 -10.72519,12.52625 -1.64321,0.80216 -3.99565,1.66109 -5.22765,1.90873 -1.30748,0.26282 -3.23912,0.98873 -4.64,1.74371 -1.32,0.7114 -3.048,1.45844 -3.84,1.66009 -0.792,0.20165 -2.04829,0.79539 -2.79176,1.31943 -3.17054,2.23479 -6.47092,3.16487 -11.23042,3.16487 -5.29928,0 -10.405642,-1.85228 -13.81944,-5.01285 -0.99536,-0.92153 -2.501978,-1.93283 -3.377626,-2.26721 -0.869414,-0.33199 -2.228755,-1.02208 -3.020755,-1.53352 -0.792,-0.51145 -2.293629,-1.10981 -3.336957,-1.32968 -2.745747,-0.57866 -6.171904,-2.31527 -8.553091,-4.33529 l -2.074099,-1.75951 -0.988413,0.83903 c -0.543626,0.46147 -1.20744,1.28005 -1.475142,1.81908 -1.230512,2.47769 -4.552052,5.33927 -7.274343,6.26702 -0.603875,0.2058 -1.595385,0.80484 -2.203353,1.3312 -2.455069,2.12552 -7.161415,3.36487 -9.578365,2.52231 -0.615466,-0.21455 -1.052567,-0.22832 -1.170874,-0.0369 -0.509283,0.82404 -2.765648,1.57632 -4.727961,1.57632 -2.995252,0 -4.739952,-1.24221 -6.516954,-4.64 -0.941635,-1.8005 -1.69096,-4.33385 -1.69665,-5.73613 -0.0022,-0.51487 -0.531744,-2.00461 -1.177011,-3.31052 l -1.173213,-2.3744 -0.10022,-6.40029 c -0.09083,-5.80039 -0.03876,-6.56986 0.555548,-8.20947 0.360672,-0.99505 0.8021,-2.67319 0.980948,-3.72919 0.527392,-3.11396 2.017078,-5.74947 4.906537,-8.680487 l 2.563613,-2.600489 -1.362294,-1.038647 c -2.75017,-2.096793 -5.575188,-6.693924 -5.997924,-9.760374 -0.121312,-0.88 -0.558636,-2.46792 -0.971827,-3.52871 -0.81743,-2.0986 -0.907408,-3.42852 -0.725133,-10.71769 0.105508,-4.2192 0.136925,-4.38571 1.26793,-6.72 0.699958,-1.44465 1.235805,-3.10387 1.351597,-4.18515 0.380137,-3.54978 2.124403,-6.90081 4.420073,-8.49171 1.17465,-0.81403 1.597428,-0.91674 3.773588,-0.91674 2.091782,0 2.634784,0.12035 3.70736,0.8217 0.925059,0.60489 1.467715,0.76106 2.05663,0.59189 2.651242,-0.76156 6.5336,0.2356 9.433706,2.423 1.052534,0.79388 2.146211,1.44341 2.430387,1.44341 0.784169,0 4.163993,2.29603 5.314966,3.61063 0.560483,0.64017 1.384624,1.78773 1.831424,2.55013 0.4468,0.76241 1.229223,1.6944 1.738711,2.07108 l 0.926348,0.68488 1.69498,-1.56644 c 2.203257,-2.03617 5.346864,-3.66737 8.535283,-4.4289 1.404573,-0.33548 3.149593,-0.98608 3.877824,-1.4458 0.72823,-0.45971 1.938829,-1.07516 2.690214,-1.36767 0.751386,-0.2925 2.158157,-1.27453 3.126157,-2.18227 3.699053,-3.4688 7.503904,-4.95695 13.280001,-5.19405 5.40713,-0.22195 9.18293,0.77821 12.5102,3.31381 0.54462,0.41503 1.16022,0.7546 1.368,0.7546 0.79683,0 3.97573,1.2829 5.49446,2.21738 0.94466,0.58126 2.58694,1.18352 4.05311,1.48637 7.36184,1.52062 13.83463,7.38968 15.87122,14.39086 0.26794,0.92111 1.19374,2.57044 2.15545,3.84 0.92718,1.22397 2.22136,3.33187 2.87594,4.68424 0.65459,1.35238 1.63885,3.00319 2.18724,3.66848 1.44418,1.75204 3.10987,5.08268 3.71525,7.42882 0.64769,2.510144 0.86869,6.639031 0.48511,9.063527 z"
       id="path509" /></g></svg>
